<svg width="28" height="40" viewBox="0 0 28 40" fill="none" xmlns="http://www.w3.org/2000/svg">
<g opacity="0.18">
<g opacity="0.18">
<g opacity="0.18">
<path opacity="0.18" d="M13.5 16.5C8.5 16.5 4.5 20.5 4.5 25.5C4.5 30.5 8.5 34.5 13.5 34.5C18.5 34.5 22.5 30.5 22.5 25.5C22.5 20.5 18.5 16.5 13.5 16.5ZM13.5 31.5C10.2 31.5 7.5 28.8 7.5 25.5C7.5 24.4 7.8 23.3 8.3 22.5L16.5 30.7C15.7 31.2 14.6 31.5 13.5 31.5ZM18.8 28.4L10.6 20.2C11.5 19.7 12.5 19.4 13.7 19.4C17 19.4 19.7 22.1 19.7 25.4C19.6 26.5 19.3 27.6 18.8 28.4Z" stroke="#231F20"/>
</g>
</g>
</g>
<path d="M13.5 17C8.8 17 5 20.8 5 25.5C5 30.2 8.8 34 13.5 34C18.2 34 22 30.2 22 25.5C22 20.8 18.2 17 13.5 17ZM16.8 31.1C15.8 31.7 14.7 32 13.5 32C9.9 32 7 29.1 7 25.5C7 24.3 7.3 23.2 7.9 22.2L8.2 21.6L17.3 30.7L16.8 31.1ZM19.2 28.7L18.9 29.3L9.8 20.2L10.4 19.9C11.4 19.3 12.5 19 13.7 19C17.3 19 20.2 21.9 20.2 25.5C20.1 26.6 19.8 27.7 19.2 28.7Z" fill="#B0B0B0"/>
<path d="M4 18.3984V2.39844L15.6 13.9984H8.6L8.4 14.0984L4 18.3984Z" fill="white"/>
<path d="M5 4.79688V15.9969L8 13.0969L8.1 12.9969H13.2L5 4.79688Z" fill="black"/>
</svg>
