<svg width="22" height="22" viewBox="0 0 22 22" fill="none" xmlns="http://www.w3.org/2000/svg">
<path d="M18.7734 1V5.44444" stroke="black" stroke-width="2" stroke-linecap="round"/>
<path d="M21 3.22266L16.5556 3.22266" stroke="black" stroke-width="2" stroke-linecap="round"/>
<path d="M12.3889 3.22266H5C2.79086 3.22266 1 5.01352 1 7.22266V16.2782M18.7778 9.61155V17.0004C18.7778 19.2096 16.9869 21.0004 14.7778 21.0004H5C2.79086 21.0004 1 19.2096 1 17.0004V16.2782M1 16.2782L4.83824 12.44C6.40034 10.8779 8.93298 10.8779 10.4951 12.44C11.8961 13.841 13.5664 15.5112 14.8889 16.8338" stroke="black" stroke-width="2" stroke-linecap="round"/>
<path d="M18.7795 14.6107L18.2746 14.1058C16.7125 12.5437 14.1799 12.5437 12.6178 14.1058L12.3906 14.3329" stroke="black" stroke-width="2" stroke-linecap="round"/>
<circle cx="12.1102" cy="7.66493" r="0.555556" fill="black"/>
</svg>
